<?xml version="1.0" encoding="UTF-8" standalone="no"?>
<!-- Uploaded to: SVG Repo, www.svgrepo.com, Generator: SVG Repo Mixer Tools -->

<svg
   width="19.5"
   height="24"
   viewBox="-3 0 19.5 24"
   version="1.1"
   id="svg11"
   sodipodi:docname="stats-svgrepo-com-24x24.svg"
   inkscape:version="1.2.2 (b0a8486541, 2022-12-01)"
   xmlns:inkscape="http://www.inkscape.org/namespaces/inkscape"
   xmlns:sodipodi="http://sodipodi.sourceforge.net/DTD/sodipodi-0.dtd"
   xmlns="http://www.w3.org/2000/svg"
   xmlns:svg="http://www.w3.org/2000/svg"
   xmlns:rdf="http://www.w3.org/1999/02/22-rdf-syntax-ns#"
   xmlns:cc="http://creativecommons.org/ns#"
   xmlns:dc="http://purl.org/dc/elements/1.1/"
   xmlns:sketch="http://www.bohemiancoding.com/sketch/ns">
  <sodipodi:namedview
     id="namedview13"
     pagecolor="#505050"
     bordercolor="#eeeeee"
     borderopacity="1"
     inkscape:showpageshadow="0"
     inkscape:pageopacity="0"
     inkscape:pagecheckerboard="0"
     inkscape:deskcolor="#505050"
     showgrid="false"
     inkscape:zoom="27.59375"
     inkscape:cx="13.010193"
     inkscape:cy="16"
     inkscape:window-width="1920"
     inkscape:window-height="1131"
     inkscape:window-x="0"
     inkscape:window-y="0"
     inkscape:window-maximized="1"
     inkscape:current-layer="svg11" />
  <title
     id="title2">stats</title>
  <desc
     id="desc4">Created with Sketch Beta.</desc>
  <defs
     id="defs6" />
  <path
     d="M 7.4999998,0 H 5.9999999 c -0.828,0 -1.5,0.67199999 -1.5,1.4999999 V 22.5 c 0,0.828 0.672,1.5 1.5,1.5 H 7.4999998 C 8.3279999,24 9,23.328 9,22.5 V 1.4999999 C 9,0.67199999 8.3279999,0 7.4999998,0 Z M 15,12 h -1.500001 c -0.828,0 -1.5,0.672 -1.5,1.5 v 9 c 0,0.828 0.672,1.5 1.5,1.5 H 15 c 0.828,0 1.5,-0.672 1.5,-1.5 v -9 C 16.5,12.672 15.828,12 15,12 Z M -4.8749999e-8,6.7499999 H -1.5000001 C -2.328,6.7499999 -3,7.4219999 -3,8.2499997 V 22.5 c 0,0.828 0.672,1.5 1.4999999,1.5 H -4.8749999e-8 C 0.82799993,24 1.4999999,23.328 1.4999999,22.5 V 8.2499997 C 1.4999999,7.4219999 0.82799993,6.7499999 -4.8749999e-8,6.7499999 Z"
     id="stats"
     sketch:type="MSShapeGroup"
     style="stroke-width:0.75" />
  <metadata
     id="metadata296">
    <rdf:RDF>
      <cc:Work
         rdf:about="">
        <dc:title>stats</dc:title>
      </cc:Work>
    </rdf:RDF>
  </metadata>
</svg>
