<?xml version="1.0" encoding="UTF-8" standalone="no"?>
<!-- Uploaded to: SVG Repo, www.svgrepo.com, Generator: SVG Repo Mixer Tools -->

<svg
   width="19.5"
   height="24"
   viewBox="0 0 24 24"
   version="1.1"
   id="svg11"
   sodipodi:docname="stats-svgrepo-com-24x24.svg"
   inkscape:version="1.2.2 (b0a8486541, 2022-12-01)"
   xmlns:inkscape="http://www.inkscape.org/namespaces/inkscape"
   xmlns:sodipodi="http://sodipodi.sourceforge.net/DTD/sodipodi-0.dtd"
   xmlns="http://www.w3.org/2000/svg"
   xmlns:svg="http://www.w3.org/2000/svg"
   xmlns:rdf="http://www.w3.org/1999/02/22-rdf-syntax-ns#"
   xmlns:cc="http://creativecommons.org/ns#"
   xmlns:dc="http://purl.org/dc/elements/1.1/">
  <sodipodi:namedview
     id="namedview13"
     pagecolor="#505050"
     bordercolor="#eeeeee"
     borderopacity="1"
     inkscape:showpageshadow="0"
     inkscape:pageopacity="0"
     inkscape:pagecheckerboard="0"
     inkscape:deskcolor="#505050"
     showgrid="false"
     inkscape:zoom="27.59375"
     inkscape:cx="13.300113"
     inkscape:cy="10.745187"
     inkscape:window-width="1920"
     inkscape:window-height="1131"
     inkscape:window-x="0"
     inkscape:window-y="0"
     inkscape:window-maximized="1"
     inkscape:current-layer="svg11" />
  <title
     id="title2">stats</title>
  <desc
     id="desc4">Created with Sketch Beta.</desc>
  <defs
     id="defs6" />
  <path
     d="m 12.75,0 h -1.5 C 10.422,0 9.7499999,0.672 9.7499999,1.4999999 V 22.5 c 0,0.828 0.6720001,1.5 1.5000001,1.5 h 1.5 c 0.828,0 1.5,-0.672 1.5,-1.5 V 1.4999999 C 14.25,0.672 13.578,0 12.75,0 Z m 7.5,12 h -1.500001 c -0.828,0 -1.5,0.672 -1.5,1.5 v 9 c 0,0.828 0.672,1.5 1.5,1.5 H 20.25 c 0.828,0 1.5,-0.672 1.5,-1.5 v -9 c 0,-0.828 -0.672,-1.5 -1.5,-1.5 z M 5.25,6.7499999 H 3.7499999 C 2.922,6.7499999 2.25,7.4219999 2.25,8.2499997 V 22.5 c 0,0.828 0.672,1.5 1.4999999,1.5 H 5.25 c 0.8279999,0 1.4999999,-0.672 1.4999999,-1.5 V 8.2499997 c 0,-0.8279998 -0.672,-1.4999998 -1.4999999,-1.4999998 z"
     style="stroke-width:0.75"
     inkscape:label="stats-icon"
     id="path856" />
  <metadata
     id="metadata296">
    <rdf:RDF>
      <cc:Work
         rdf:about="">
        <dc:title>stats</dc:title>
      </cc:Work>
    </rdf:RDF>
  </metadata>
</svg>
